# xmcd
#
# Track frame offsets:
#  150
#  14729
#  26607
#  39824
#  53128
#  66233
#  76474
#  89840
#  102216
#  114523
#  127849
#  139126
#  152498
#  162940
#  177151
#  189428
#  201904
#  213196
#  224051
#  236497
#  246703
#  260291
#  272470
#  283644
#  293186
#  306490
#  318724
#  328736
#  341471
#
# Disc length: 4700 seconds
#
# Revision: 0
# Processed by: cddbd v1.5.2PL0 Copyright (c) Steve Scherf et al.
# Submitted via: AltoMP3_Maker 3.0
#
DISCID=b8125a1d
DTITLE=Arthur Q. Smith - The Trouble with the Truth, disc I
DYEAR=2016
DGENRE=Country
TTITLE0=Roy Acuff - My Tears Don't Show
TTITLE1=Kitty Wells - You Can't Conceal a Broken Heart
TTITLE2=Carlisle Bros - Rainbow at Midnight
TTITLE3=Hank Williams - Wedding Bells
TTITLE4=Hawkshaw Hawkins - Somebody Lied
TTITLE5=Moon Mullican - Save a Little Dream for Me
TTITLE6=Carl Smith - I Overlooked an Orchid
TTITLE7=Johnnie and Jack w Smilin' Eddie Hill - Love in the First Degree
TTITLE8=Esco Hankins - A Daddy's Lullaby
TTITLE9=Bill Monroe - How Will I Explain about You
TTITLE10=Mother Maybelle and Carter Sis - I've Got a Home up in Glory
TTITLE11=Molly O'Day and Cumberland Mtn Folks - This Is the End
TTITLE12=Carl Butler - Country Mile
TTITLE13=Ernest Tubb - Missing in Action
TTITLE14=Carl Sauceman and Green Valley Boys - Wrap My Body in Old Glory
TTITLE15=Orval Prophet - Crown of Thorns
TTITLE16=Jim Eanes - Heartless Women
TTITLE17=Don Gibson - Sample Kisses
TTITLE18=Geo McCormick - Don't Add an Ex to Your Name
TTITLE19=Reno and Smiley - I Wouldn't Change You if I Could
TTITLE20=Riley Crabtree - I Live with Memories
TTITLE21=Carl Story and Rambling Mtneers - Every Time Somebody Calls Your Name
TTITLE22=Stonewall Jackson - Tears on Her Bridal Bouquet
TTITLE23=Red Allen and Osborne Bros - Wild Mtn Honey
TTITLE24=Little Jimmy Dickens - A Ribbon and a Rose
TTITLE25=Freddie Chapman - My Life Is Not My Own
TTITLE26=Stanley Bros - Next Sunday Is My Birthday, Darling
TTITLE27=Ray Price - We Crossed Our Hearts
TTITLE28=Merv Shiner - The Man in the Moon Cried Last Night
EXTD=
EXTT0=
EXTT1=
EXTT2=
EXTT3=
EXTT4=
EXTT5=
EXTT6=
EXTT7=
EXTT8=
EXTT9=
EXTT10=
EXTT11=
EXTT12=
EXTT13=
EXTT14=
EXTT15=
EXTT16=
EXTT17=
EXTT18=
EXTT19=
EXTT20=
EXTT21=
EXTT22=
EXTT23=
EXTT24=
EXTT25=
EXTT26=
EXTT27=
EXTT28=
PLAYORDER=
